HIERARCHY
ROOT Hips
{
	OFFSET 0.00000 0.00000 0.00000
	CHANNELS 6 Xposition Yposition Zposition Zrotation Yrotation Xrotation 
	JOINT LHipJoint
	{
		OFFSET 0 0 0
		CHANNELS 3 Zrotation Yrotation Xrotation
		JOINT LeftUpLeg
		{
			OFFSET 1.37590 -1.78394 0.89329
			CHANNELS 3 Zrotation Yrotation Xrotation
			JOINT LeftLeg
			{
				OFFSET 2.47928 -6.81178 0.00000
				CHANNELS 3 Zrotation Yrotation Xrotation
				JOINT LeftFoot
				{
					OFFSET 2.63345 -7.23535 0.00000
					CHANNELS 3 Zrotation Yrotation Xrotation
					JOINT LeftToeBase
					{
						OFFSET 0.23938 -0.65768 2.27012
						CHANNELS 3 Zrotation Yrotation Xrotation
						End Site
						{
							OFFSET 0.00000 -0.00000 1.18363
						}
					}
				}
			}
		}
	}
	JOINT RHipJoint
	{
		OFFSET 0 0 0
		CHANNELS 3 Zrotation Yrotation Xrotation
		JOINT RightUpLeg
		{
			OFFSET -1.33617 -1.78394 0.89329
			CHANNELS 3 Zrotation Yrotation Xrotation
			JOINT RightLeg
			{
				OFFSET -2.56922 -7.05888 0.00000
				CHANNELS 3 Zrotation Yrotation Xrotation
				JOINT RightFoot
				{
					OFFSET -2.56568 -7.04915 0.00000
					CHANNELS 3 Zrotation Yrotation Xrotation
					JOINT RightToeBase
					{
						OFFSET -0.27533 -0.75646 2.18105
						CHANNELS 3 Zrotation Yrotation Xrotation
						End Site
						{
							OFFSET -0.00000 -0.00000 1.15233
						}
					}
				}
			}
		}
	}
	JOINT LowerBack
	{
		OFFSET 0 0 0
		CHANNELS 3 Zrotation Yrotation Xrotation
		JOINT Spine
		{
			OFFSET 0.06190 2.15152 -0.00935
			CHANNELS 3 Zrotation Yrotation Xrotation
			JOINT Spine1
			{
				OFFSET 0.06334 2.15332 0.00872
				CHANNELS 3 Zrotation Yrotation Xrotation
				JOINT Neck
				{
					OFFSET 0 0 0
					CHANNELS 3 Zrotation Yrotation Xrotation
					JOINT Neck1
					{
						OFFSET -0.04202 1.66908 0.23524
						CHANNELS 3 Zrotation Yrotation Xrotation
						JOINT Head
						{
							OFFSET 0.07510 1.69357 -0.24440
							CHANNELS 3 Zrotation Yrotation Xrotation
							End Site
							{
								OFFSET 0.02556 1.71719 -0.11000
							}
						}
					}
				}
				JOINT LeftShoulder
				{
					OFFSET 0 0 0
					CHANNELS 3 Zrotation Yrotation Xrotation
					JOINT LeftArm
					{
						OFFSET 3.67168 1.26306 -0.41342
						CHANNELS 3 Zrotation Yrotation Xrotation
						JOINT LeftForeArm
						{
							OFFSET 4.68510 -0.00000 -0.00000
							CHANNELS 3 Zrotation Yrotation Xrotation
							JOINT LeftHand
							{
								OFFSET 3.39626 -0.00000 -0.00000
								CHANNELS 3 Zrotation Yrotation Xrotation
								JOINT LeftFingerBase
								{
									OFFSET 0 0 0
									CHANNELS 3 Zrotation Yrotation Xrotation
									JOINT LeftHandIndex1
									{
										OFFSET 0.48608 -0.00000 -0.00000
										CHANNELS 3 Zrotation Yrotation Xrotation
										End Site
										{
											OFFSET 0.39189 -0.00000 -0.00000
										}
									}
								}
								JOINT LThumb
								{
									OFFSET 0 0 0
									CHANNELS 3 Zrotation Yrotation Xrotation
									End Site
									{
										OFFSET 0.39787 -0.00000 0.39787
									}
								}
							}
						}
					}
				}
				JOINT RightShoulder
				{
					OFFSET 0 0 0
					CHANNELS 3 Zrotation Yrotation Xrotation
					JOINT RightArm
					{
						OFFSET -3.04136 1.42992 -0.76390
						CHANNELS 3 Zrotation Yrotation Xrotation
						JOINT RightForeArm
						{
							OFFSET -5.55576 -0.00000 -0.00000
							CHANNELS 3 Zrotation Yrotation Xrotation
							JOINT RightHand
							{
								OFFSET -3.32774 -0.00000 -0.00000
								CHANNELS 3 Zrotation Yrotation Xrotation
								JOINT RightFingerBase
								{
									OFFSET 0 0 0
									CHANNELS 3 Zrotation Yrotation Xrotation
									JOINT RightHandIndex1
									{
										OFFSET -0.50763 -0.00000 -0.00000
										CHANNELS 3 Zrotation Yrotation Xrotation
										End Site
										{
											OFFSET -0.40926 -0.00000 -0.00000
										}
									}
								}
								JOINT RThumb
								{
									OFFSET 0 0 0
									CHANNELS 3 Zrotation Yrotation Xrotation
									End Site
									{
										OFFSET -0.41551 -0.00000 0.41551
									}
								}
							}
						}
					}
				}
			}
		}
	}
}
MOTION
Frames: 6
Frame Time: .0083333
33.1145 16.4902 7.9234 -25.3793 -61.6182 31.9448 0.0000 0.0000 0.0000 3.8284 -0.1348 -50.1052 2.1251 9.1219 26.1773 -0.6238 14.0640 -7.9766 0.0646 -1.6404 -4.5130 0.0000 0.0000 0.0000 14.9912 -0.8202 -3.4936 -2.6306 -10.0716 29.2088 0.3755 -14.8617 -16.3718 -1.8094 8.4572 -24.1117 7.2221 1.0412 7.4592 4.7367 2.0599 0.5357 0.6649 0.8954 -3.5530 -8.5371 -1.8871 -14.2057 0.3158 -1.1066 2.6199 1.5580 -0.6792 3.4726 -0.0000 -0.0000 0.0000 -97.6557 -32.1897 53.1807 47.4994 -51.9358 -24.1910 -0.0000 0.0000 -2.7395 10.8157 33.4582 6.0127 -7.1250 0.0000 -0.0000 -26.0477 62.0188 -11.1922 -0.0000 -0.0000 0.0000 83.6264 38.8705 73.6830 -53.3508 54.2607 -28.8726 0.0000 0.0000 10.0093 -31.1649 -23.0907 13.3433 7.1250 -0.0000 -0.0000 -2.3015 -56.4498 0.6463
32.9840 16.4960 8.0705 -25.2759 -61.1627 32.0209 0.0000 0.0000 0.0000 3.5746 0.1380 -50.3465 2.0851 9.0411 25.9241 -0.6578 14.3885 -7.9078 0.0489 -1.4276 -3.9262 0.0000 0.0000 0.0000 15.0202 -0.6548 -2.8216 -2.5487 -9.9259 28.7372 0.5123 -15.4698 -15.3733 -1.8339 8.5111 -24.2776 7.0954 1.0966 7.3631 4.6559 2.1204 0.4648 0.6460 0.9275 -3.5722 -8.6131 -2.0021 -14.1470 0.4785 -1.2631 2.5560 1.6151 -0.7478 3.4504 -0.0000 0.0000 0.0000 -97.4591 -32.4191 53.0483 47.7331 -52.0393 -24.3752 -0.0000 0.0000 -2.6932 10.7898 33.4597 5.9983 -7.1250 0.0000 -0.0000 -26.0765 62.0137 -11.2023 -0.0000 0.0000 0.0000 83.7720 38.9042 73.6009 -53.7307 54.3936 -29.1812 0.0000 0.0000 10.0041 -31.0968 -23.0955 13.3113 7.1250 -0.0000 -0.0000 -2.2242 -56.4397 0.6241
32.8535 16.5022 8.2212 -25.1553 -60.6949 32.0858 0.0000 0.0000 0.0000 3.2628 0.4199 -50.6281 2.0645 8.9992 25.7929 -0.6826 14.6189 -7.8372 0.0364 -1.2314 -3.3858 0.0000 0.0000 0.0000 15.0524 -0.4695 -2.1814 -2.4750 -9.7923 28.3067 0.6497 -16.0994 -14.3033 -1.8440 8.5333 -24.3460 6.9588 1.1476 7.2720 4.5728 2.1749 0.3943 0.6309 0.9567 -3.5944 -8.6881 -2.1193 -14.0880 0.6497 -1.4236 2.4841 1.6748 -0.8179 3.4262 -0.0000 -0.0000 0.0000 -97.2437 -32.6661 52.9003 47.9447 -52.1322 -24.5421 -0.0000 0.0000 -2.6051 10.7752 33.4330 5.9859 -7.1250 0.0000 -0.0000 -26.0658 61.9866 -11.1806 -0.0000 -0.0000 0.0000 83.8877 38.9019 73.4397 -54.1229 54.5288 -29.5003 0.0000 0.0000 10.0009 -31.0359 -23.1007 13.2832 7.1250 -0.0000 -0.0000 -2.1548 -56.4316 0.6042
32.7231 16.5089 8.3751 -25.0186 -60.2127 32.1392 0.0000 0.0000 0.0000 2.8974 0.7062 -50.9465 2.0624 8.9949 25.7793 -0.6982 14.7585 -7.7631 0.0267 -1.0546 -2.8989 0.0000 0.0000 0.0000 15.0920 -0.2643 -1.5764 -2.4101 -9.6727 27.9231 0.7835 -16.7371 -13.1770 -1.8422 8.5293 -24.3336 6.8129 1.1930 7.1868 4.4881 2.2217 0.3255 0.6200 0.9823 -3.6186 -8.7652 -2.2389 -14.0306 0.8327 -1.5875 2.4054 1.7387 -0.8892 3.4008 -0.0000 -0.0000 0.0000 -97.0112 -32.9331 52.7350 48.1318 -52.2137 -24.6898 -0.0000 0.0000 -2.4759 10.7699 33.3847 5.9753 -7.1250 0.0000 -0.0000 -26.0246 61.9426 -11.1345 -0.0000 -0.0000 0.0000 83.9731 38.8647 73.2056 -54.5257 54.6653 -29.8287 0.0000 0.0000 9.9944 -30.9877 -23.1067 13.2620 7.1250 -0.0000 -0.0000 -2.0996 -56.4273 0.5885
32.5929 16.5162 8.5320 -24.8662 -59.7149 32.1806 0.0000 0.0000 0.0000 2.4868 0.9883 -51.2945 2.0776 9.0260 25.8766 -0.7047 14.8119 -7.6937 0.0188 -0.8844 -2.4307 0.0000 0.0000 0.0000 15.1422 -0.0413 -1.0108 -2.3549 -9.5692 27.5927 0.9130 -17.3880 -11.9940 -1.8311 8.5049 -24.2586 6.6603 1.2314 7.1106 4.4011 2.2595 0.2586 0.6112 1.0035 -3.6465 -8.8441 -2.3609 -13.9755 1.0281 -1.7549 2.3198 1.8071 -0.9616 3.3745 -0.0000 0.0000 0.0000 -96.7604 -33.2200 52.5510 48.2928 -52.2833 -24.8171 -0.0000 0.0000 -2.3103 10.7751 33.3190 5.9678 -7.1250 0.0000 -0.0000 -25.9555 61.8858 -11.0678 -0.0000 0.0000 0.0000 84.0317 38.7917 72.9046 -54.9374 54.8026 -30.1648 0.0000 0.0000 9.9821 -30.9494 -23.1136 13.2462 7.1250 -0.0000 -0.0000 -2.0552 -56.4264 0.5760
32.4630 16.5240 8.6918 -24.6966 -59.2011 32.2069 0.0000 0.0000 0.0000 2.0342 1.2616 -51.6658 2.1095 9.0905 26.0789 -0.7028 14.7862 -7.6310 0.0126 -0.7262 -1.9956 0.0000 0.0000 0.0000 15.2045 0.1995 -0.4873 -2.3101 -9.4841 27.3216 1.0367 -18.0513 -10.7611 -1.8086 8.4554 -24.1062 6.4984 1.2634 7.0447 4.3127 2.2887 0.1953 0.6069 1.0207 -3.6770 -8.9259 -2.4860 -13.9230 1.2346 -1.9263 2.2268 1.8796 -1.0356 3.3472 -0.0000 0.0000 0.0000 -96.4961 -33.5282 52.3515 48.4249 -52.3402 -24.9217 -0.0000 0.0000 -2.1138 10.7932 33.2356 5.9649 -7.1250 0.0000 -0.0000 -25.8563 61.8166 -10.9799 -0.0000 0.0000 0.0000 84.0616 38.6843 72.5377 -55.3563 54.9399 -30.5075 0.0000 0.0000 9.9625 -30.9261 -23.1237 13.2397 7.1250 -0.0000 -0.0000 -2.0268 -56.4322 0.5683
